# xmcd
#
# Track frame offsets: 
#        150
#        32430
#        47876
#        60149
#        77762
#        88113
#        102301
#        106281
#        120778
#        142279
#        154514
#        165580
#        174844
#        185190
#        194538
#        210538
#        227860
#        235493
#        243481
#        256597
#        276201
#        290520
#
# Disc length: 4107 seconds
#
# Revision: 0
# Processed by: cddbd v1.5.2PL0 Copyright (c) Steve Scherf et al.
# Submitted via: ExactAudioCopy v0.95b3
#
DISCID=2d100916
DTITLE=The Beatles  - The Beatles Deluxe - Disc 01 - stereo  PC-131  F
DTITLE=LAC
DYEAR=1900
DGENRE=
TTITLE0=Hey Jude (stereo)
TTITLE1=Revolution (stereo)
TTITLE2=Back In The USSR (stereo)
TTITLE3=Dear Prudence (stereo)
TTITLE4=Glass Onion (stereo)
TTITLE5=Ob-La-Di Ob-La-Da (stereo)
TTITLE6=Wild Honey Pie (stereo)
TTITLE7=The Continuing Story Of Bungalow Bil (stereo)
TTITLE8=While My Guitar Gently Weeps (stereo)
TTITLE9=Happiness Is A Warm Gun (stereo)
TTITLE10=Martha My Dear (stereo)
TTITLE11=I'm So Tired (stereo)
TTITLE12=Blackbird (stereo).
TTITLE13=Piggies (stereo)
TTITLE14=Rocky Raccoon (stereo)
TTITLE15=Don't Pass Me By (stereo)
TTITLE16=Why Don't We Do It In The Road (stereo)
TTITLE17=I Will (stereo)
TTITLE18=Julia (stereo)
TTITLE19=Not Guilty (stereo)
TTITLE20=What's The New Mary Jane (stereo)
TTITLE21=Sour Milk Sea (stereo outfake)-fixed
EXTD=
EXTT0=
EXTT1=
EXTT2=
EXTT3=
EXTT4=
EXTT5=
EXTT6=
EXTT7=
EXTT8=
EXTT9=
EXTT10=
EXTT11=
EXTT12=
EXTT13=
EXTT14=
EXTT15=
EXTT16=
EXTT17=
EXTT18=
EXTT19=
EXTT20=
EXTT21=
PLAYORDER=
